<svg xmlns="http://www.w3.org/2000/svg" xmlns:xlink="http://www.w3.org/1999/xlink" width="82.042mm" height="87.694mm" viewBox="4177.6 3078 129.2 138.1"><title></title><style type="text/css">
*[layerid="1"] {stroke:#FF0000;fill:#FF0000;}
*[layerid="2"] {stroke:#0000FF;fill:#0000FF;}
*[layerid="3"] {stroke:#FFCC00;fill:#FFCC00;}
*[layerid="4"] {stroke:#66CC33;fill:#66CC33;}
*[layerid="5"] {stroke:#808080;fill:#808080;}
*[layerid="6"] {stroke:#800000;fill:#800000;}
*[layerid="7"] {stroke:#800080;fill:#800080;}
*[layerid="8"] {stroke:#AA00FF;fill:#AA00FF;}
*[layerid="9"] {stroke:#6464FF;fill:#6464FF;}
*[layerid="10"] {stroke:#FF00FF;fill:#FF00FF;}
*[layerid="11"] {stroke:#C0C0C0;fill:#C0C0C0;}
*[layerid="12"] {stroke:#FFFFFF;fill:#FFFFFF;}
*[layerid="13"] {stroke:#33CC99;fill:#33CC99;}
*[layerid="14"] {stroke:#5555FF;fill:#5555FF;}
*[layerid="15"] {stroke:#F022F0;fill:#F022F0;}
*[layerid="21"] {stroke:#800000;fill:#800000;}
*[layerid="22"] {stroke:#008000;fill:#008000;}
*[layerid="23"] {stroke:#00FF00;fill:#00FF00;}
*[layerid="24"] {stroke:#BC8E00;fill:#BC8E00;}
*[layerid="25"] {stroke:#70DBFA;fill:#70DBFA;}
*[layerid="26"] {stroke:#00CC66;fill:#00CC66;}
*[layerid="27"] {stroke:#9966FF;fill:#9966FF;}
*[layerid="28"] {stroke:#800080;fill:#800080;}
*[layerid="29"] {stroke:#008080;fill:#008080;}
*[layerid="30"] {stroke:#15935F;fill:#15935F;}
*[layerid="31"] {stroke:#000080;fill:#000080;}
*[layerid="32"] {stroke:#00B400;fill:#00B400;}
*[layerid="33"] {stroke:#2E4756;fill:#2E4756;}
*[layerid="34"] {stroke:#99842F;fill:#99842F;}
*[layerid="35"] {stroke:#FFFFAA;fill:#FFFFAA;}
*[layerid="36"] {stroke:#99842F;fill:#99842F;}
*[layerid="37"] {stroke:#2E4756;fill:#2E4756;}
*[layerid="38"] {stroke:#3535FF;fill:#3535FF;}
*[layerid="39"] {stroke:#8000BC;fill:#8000BC;}
*[layerid="40"] {stroke:#43AE5F;fill:#43AE5F;}
*[layerid="41"] {stroke:#C3ECCE;fill:#C3ECCE;}
*[layerid="42"] {stroke:#728978;fill:#728978;}
*[layerid="43"] {stroke:#39503F;fill:#39503F;}
*[layerid="44"] {stroke:#0C715D;fill:#0C715D;}
*[layerid="45"] {stroke:#5A8A80;fill:#5A8A80;}
*[layerid="46"] {stroke:#2B937E;fill:#2B937E;}
*[layerid="47"] {stroke:#23999D;fill:#23999D;}
*[layerid="48"] {stroke:#45B4E3;fill:#45B4E3;}
*[layerid="49"] {stroke:#215DA1;fill:#215DA1;}
*[layerid="50"] {stroke:#4564D7;fill:#4564D7;}
*[layerid="51"] {stroke:#6969E9;fill:#6969E9;}
*[layerid="52"] {stroke:#9069E9;fill:#9069E9;}
*[fill="none"] {fill: none;}
*[stroke="none"] {stroke: none;}
path, polyline, polygon, line {stroke-linecap:round;}
g[c_partid="part_pad"][layerid="1"] ellipse:not([c_padid]) {fill:#FF0000;}
g[c_partid="part_pad"][layerid="1"]  polygon:not([c_padid]) {fill:#FF0000;}
g[c_partid="part_pad"][layerid="1"]  polyline:not([c_padid]) {stroke:#FF0000;}
g[c_partid="part_pad"][layerid="1"]  circle {fill:#FF0000;}
g[c_partid="part_pad"][layerid="2"]  ellipse:not([c_padid]) {fill:#0000FF;}
g[c_partid="part_pad"][layerid="2"]  polygon:not([c_padid]) {fill:#0000FF;}
g[c_partid="part_pad"][layerid="2"]  polyline:not([c_padid]) {stroke:#0000FF;}
g[c_partid="part_pad"][layerid="2"]  circle {fill:#0000FF;}
g[c_partid="part_pad"][layerid="11"]  ellipse:not([c_padid]) {fill:#C0C0C0;}
g[c_partid="part_pad"][layerid="11"]  polygon:not([c_padid]) {fill:#C0C0C0;}
g[c_partid="part_pad"][layerid="11"]  polyline:not([c_padid]) {stroke:#C0C0C0;}
g[c_partid="part_pad"][layerid="11"]  circle {fill:#C0C0C0;}
g[c_partid="part_pad"][layerid] > circle[c_padhole] {fill: #222222;}
g[c_partid="part_pad"][layerid] > polyline[c_padhole] {stroke:#222222;}
g[c_partid="part_via"][layerid] > * + circle {fill: #222222;}
g[c_partid="part_pad"] > polygon[c_padid], #gCurParts g[c_partid="part_pad"] > polygon[c_padid] {stroke-linejoin: miter;stroke-miterlimit: 100;}path, polyline, polygon {stroke-linejoin:round;}
rect, circle, ellipse, polyline, line, polygon, path {shape-rendering:crispEdges;}
</style>
<rect x="4177.6" y="3078" width="129.2" height="138.1" fill="#000000" stroke="none"/><g id="g1" cpara="name`HM-10 Module`" c_transformList="" importFlag="0" xmlns="http://www.w3.org/2000/svg"><polyline points="4191 3201 4198.8 3201 4200.8 3199" stroke-width="1" c_shapetype="line" stroke-linecap="round" fill="none" layerid="1" net="S$17497" id="gge17496" /><polyline points="4191 3194 4199.9 3194 4200.8 3193.1" stroke-width="1" c_shapetype="line" stroke-linecap="round" fill="none" layerid="1" net="S$17499" id="gge17498" /><polyline points="4200.8 3187.2 4191.2 3187.2 4191 3187" stroke-width="1" c_shapetype="line" stroke-linecap="round" fill="none" layerid="1" net="S$17503" id="gge17502" /><polyline points="4191 3164 4200.4 3164 4200.8 3163.6" stroke-width="1" c_shapetype="line" stroke-linecap="round" fill="none" layerid="1" net="S$17628" id="gge17627" /><polyline points="4191 3170 4200.3 3170 4200.8 3169.5" stroke-width="1" c_shapetype="line" stroke-linecap="round" fill="none" layerid="1" net="S$17630" id="gge17629" /><polyline points="4190 3128 4200.7 3128 4200.8 3128.1" stroke-width="1" c_shapetype="line" stroke-linecap="round" fill="none" layerid="1" net="S$17666" id="gge17665" /><polyline points="4200.8 3134.1 4190.1 3134.1 4190 3134" stroke-width="1" c_shapetype="line" stroke-linecap="round" fill="none" layerid="1" net="S$17670" id="gge17669" /><polyline points="4252 3187.2 4259.8 3187.2 4260 3187" stroke-width="1" c_shapetype="line" stroke-linecap="round" fill="none" layerid="1" net="S$17717" id="gge17716" /><polyline points="4260 3193 4252.1 3193 4252 3193.1" stroke-width="1" c_shapetype="line" stroke-linecap="round" fill="none" layerid="1" net="S$17719" id="gge17718" /><polyline points="4252 3199 4260 3199" stroke-width="1" c_shapetype="line" stroke-linecap="round" fill="none" layerid="1" net="S$17721" id="gge17720" /><polyline points="4200.8 3140 4190 3140" stroke-width="1" c_shapetype="line" stroke-linecap="round" fill="none" layerid="1" net="S$17723" id="gge17722" /><polyline points="4190 3146 4200.7 3146 4200.8 3145.9" stroke-width="1" c_shapetype="line" stroke-linecap="round" fill="none" layerid="1" net="S$17725" id="gge17724" /><g xmlns="http://www.w3.org/2000/svg" c_origin="4226,3206" c_para="package`HM-10_NO_BOTTOM_ROW`" c_partid="part_import_gge17242" id="gge17242" c_shapetype="group" c_etype="pinpart" layerid="1" ><g c_partid="part_pcbtext" c_origin="4254.23,3079.65" c_rotation="0" c_mirror="" id="gge112" layerid="3" c_shapetype="group" display="none"><path c_fontSize="4.5" c_fontFamily="" c_text="U1" d="M 4254.235 3077.195 L 4254.235 3080.265 L 4254.435 3080.875 L 4254.845 3081.285 L 4255.455 3081.495 L 4255.865 3081.495 L 4256.485 3081.285 L 4256.885 3080.875 L 4257.095 3080.265 L 4257.095 3077.195 M 4258.445 3078.015 L 4258.855 3077.805 L 4259.465 3077.195 L 4259.465 3081.495" fill="none"  stroke-width="0.7" c_note="note_pre" /></g><g c_partid="part_pad" c_etype="pinpart" c_origin="4252,3199" layerid="1" number="22" net="S$17721" plated ="Y" c_shapetype="group" id="gge114" locked="0" c_rotation="180" c_width="5.12" c_height="3.94" title="S$17721" c_shape="RECT" pasteExpansion="0" solderExpansion="0.4"><polygon points="4254.56 3200.97 4249.44 3200.97 4249.44 3197.03 4254.56 3197.03" stroke-width="0" /><circle c_padhole="1" cx="4252" cy="3199" r="0" stroke-width="0" /></g><g c_partid="part_pad" c_etype="pinpart" c_origin="4252,3193.1" layerid="1" number="23" net="S$17719" plated ="Y" c_shapetype="group" id="gge119" locked="0" c_rotation="180" c_width="5.12" c_height="3.94" title="S$17719" c_shape="RECT" pasteExpansion="0" solderExpansion="0.4"><polygon points="4254.56 3195.07 4249.44 3195.07 4249.44 3191.13 4254.56 3191.13" stroke-width="0" /><circle c_padhole="1" cx="4252" cy="3193.1" r="0" stroke-width="0" /></g><g c_partid="part_pad" c_etype="pinpart" c_origin="4252,3187.2" layerid="1" number="24" net="S$17717" plated ="Y" c_shapetype="group" id="gge124" locked="0" c_rotation="180" c_width="5.12" c_height="3.94" title="S$17717" c_shape="RECT" pasteExpansion="0" solderExpansion="0.4"><polygon points="4254.56 3189.17 4249.44 3189.17 4249.44 3185.23 4254.56 3185.23" stroke-width="0" /><circle c_padhole="1" cx="4252" cy="3187.2" r="0" stroke-width="0" /></g><g c_partid="part_pad" c_etype="pinpart" c_origin="4252,3181.3" layerid="1" number="25" net="" plated ="Y" c_shapetype="group" id="gge129" locked="0" c_rotation="180" c_width="5.12" c_height="3.94" title="" c_shape="RECT" pasteExpansion="0" solderExpansion="0.4"><polygon points="4254.56 3183.27 4249.44 3183.27 4249.44 3179.33 4254.56 3179.33" stroke-width="0" /><circle c_padhole="1" cx="4252" cy="3181.3" r="0" stroke-width="0" /></g><g c_partid="part_pad" c_etype="pinpart" c_origin="4252,3175.4" layerid="1" number="26" net="" plated ="Y" c_shapetype="group" id="gge134" locked="0" c_rotation="180" c_width="5.12" c_height="3.94" title="" c_shape="RECT" pasteExpansion="0" solderExpansion="0.4"><polygon points="4254.56 3177.37 4249.44 3177.37 4249.44 3173.43 4254.56 3173.43" stroke-width="0" /><circle c_padhole="1" cx="4252" cy="3175.4" r="0" stroke-width="0" /></g><g c_partid="part_pad" c_etype="pinpart" c_origin="4252,3169.5" layerid="1" number="27" net="" plated ="Y" c_shapetype="group" id="gge139" locked="0" c_rotation="180" c_width="5.12" c_height="3.94" title="" c_shape="RECT" pasteExpansion="0" solderExpansion="0.4"><polygon points="4254.56 3171.47 4249.44 3171.47 4249.44 3167.53 4254.56 3167.53" stroke-width="0" /><circle c_padhole="1" cx="4252" cy="3169.5" r="0" stroke-width="0" /></g><g c_partid="part_pad" c_etype="pinpart" c_origin="4252,3163.6" layerid="1" number="28" net="" plated ="Y" c_shapetype="group" id="gge144" locked="0" c_rotation="180" c_width="5.12" c_height="3.94" title="" c_shape="RECT" pasteExpansion="0" solderExpansion="0.4"><polygon points="4254.56 3165.57 4249.44 3165.57 4249.44 3161.63 4254.56 3161.63" stroke-width="0" /><circle c_padhole="1" cx="4252" cy="3163.6" r="0" stroke-width="0" /></g><g c_partid="part_pad" c_etype="pinpart" c_origin="4252,3157.7" layerid="1" number="29" net="" plated ="Y" c_shapetype="group" id="gge149" locked="0" c_rotation="180" c_width="5.12" c_height="3.94" title="" c_shape="RECT" pasteExpansion="0" solderExpansion="0.4"><polygon points="4254.56 3159.67 4249.44 3159.67 4249.44 3155.73 4254.56 3155.73" stroke-width="0" /><circle c_padhole="1" cx="4252" cy="3157.7" r="0" stroke-width="0" /></g><g c_partid="part_pad" c_etype="pinpart" c_origin="4252,3151.8" layerid="1" number="30" net="" plated ="Y" c_shapetype="group" id="gge154" locked="0" c_rotation="180" c_width="5.12" c_height="3.94" title="" c_shape="RECT" pasteExpansion="0" solderExpansion="0.4"><polygon points="4254.56 3153.77 4249.44 3153.77 4249.44 3149.83 4254.56 3149.83" stroke-width="0" /><circle c_padhole="1" cx="4252" cy="3151.8" r="0" stroke-width="0" /></g><g c_partid="part_pad" c_etype="pinpart" c_origin="4252,3145.9" layerid="1" number="31" net="" plated ="Y" c_shapetype="group" id="gge159" locked="0" c_rotation="180" c_width="5.12" c_height="3.94" title="" c_shape="RECT" pasteExpansion="0" solderExpansion="0.4"><polygon points="4254.56 3147.87 4249.44 3147.87 4249.44 3143.93 4254.56 3143.93" stroke-width="0" /><circle c_padhole="1" cx="4252" cy="3145.9" r="0" stroke-width="0" /></g><g c_partid="part_pad" c_etype="pinpart" c_origin="4252,3140" layerid="1" number="32" net="" plated ="Y" c_shapetype="group" id="gge164" locked="0" c_rotation="180" c_width="5.12" c_height="3.94" title="" c_shape="RECT" pasteExpansion="0" solderExpansion="0.4"><polygon points="4254.56 3141.97 4249.44 3141.97 4249.44 3138.03 4254.56 3138.03" stroke-width="0" /><circle c_padhole="1" cx="4252" cy="3140" r="0" stroke-width="0" /></g><g c_partid="part_pad" c_etype="pinpart" c_origin="4252,3134.1" layerid="1" number="33" net="" plated ="Y" c_shapetype="group" id="gge169" locked="0" c_rotation="180" c_width="5.12" c_height="3.94" title="" c_shape="RECT" pasteExpansion="0" solderExpansion="0.4"><polygon points="4254.56 3136.07 4249.44 3136.07 4249.44 3132.13 4254.56 3132.13" stroke-width="0" /><circle c_padhole="1" cx="4252" cy="3134.1" r="0" stroke-width="0" /></g><g c_partid="part_pad" c_etype="pinpart" c_origin="4252,3128.1" layerid="1" number="34" net="" plated ="Y" c_shapetype="group" id="gge174" locked="0" c_rotation="180" c_width="5.12" c_height="3.94" title="" c_shape="RECT" pasteExpansion="0" solderExpansion="0.4"><polygon points="4254.56 3130.07 4249.44 3130.07 4249.44 3126.13 4254.56 3126.13" stroke-width="0" /><circle c_padhole="1" cx="4252" cy="3128.1" r="0" stroke-width="0" /></g><g c_partid="part_pad" c_etype="pinpart" c_origin="4200.8,3128.1" layerid="1" number="1" net="S$17666" plated ="Y" c_shapetype="group" id="gge179" locked="0" c_rotation="0" c_width="5.12" c_height="3.94" title="S$17666" c_shape="RECT" pasteExpansion="0" solderExpansion="0.4"><polygon points="4198.24 3126.13 4203.36 3126.13 4203.36 3130.07 4198.24 3130.07" stroke-width="0" /><circle c_padhole="1" cx="4200.8" cy="3128.1" r="0" stroke-width="0" /></g><g c_partid="part_pad" c_etype="pinpart" c_origin="4200.8,3134.1" layerid="1" number="2" net="S$17670" plated ="Y" c_shapetype="group" id="gge185" locked="0" c_rotation="0" c_width="5.12" c_height="3.94" title="S$17670" c_shape="RECT" pasteExpansion="0" solderExpansion="0.4"><polygon points="4198.24 3132.13 4203.36 3132.13 4203.36 3136.07 4198.24 3136.07" stroke-width="0" /><circle c_padhole="1" cx="4200.8" cy="3134.1" r="0" stroke-width="0" /></g><g c_partid="part_pad" c_etype="pinpart" c_origin="4200.8,3140" layerid="1" number="3" net="S$17723" plated ="Y" c_shapetype="group" id="gge190" locked="0" c_rotation="0" c_width="5.12" c_height="3.94" title="S$17723" c_shape="RECT" pasteExpansion="0" solderExpansion="0.4"><polygon points="4198.24 3138.03 4203.36 3138.03 4203.36 3141.97 4198.24 3141.97" stroke-width="0" /><circle c_padhole="1" cx="4200.8" cy="3140" r="0" stroke-width="0" /></g><g c_partid="part_pad" c_etype="pinpart" c_origin="4200.8,3145.9" layerid="1" number="4" net="S$17725" plated ="Y" c_shapetype="group" id="gge195" locked="0" c_rotation="0" c_width="5.12" c_height="3.94" title="S$17725" c_shape="RECT" pasteExpansion="0" solderExpansion="0.4"><polygon points="4198.24 3143.93 4203.36 3143.93 4203.36 3147.87 4198.24 3147.87" stroke-width="0" /><circle c_padhole="1" cx="4200.8" cy="3145.9" r="0" stroke-width="0" /></g><g c_partid="part_pad" c_etype="pinpart" c_origin="4200.8,3151.8" layerid="1" number="5" net="" plated ="Y" c_shapetype="group" id="gge200" locked="0" c_rotation="0" c_width="5.12" c_height="3.94" title="" c_shape="RECT" pasteExpansion="0" solderExpansion="0.4"><polygon points="4198.24 3149.83 4203.36 3149.83 4203.36 3153.77 4198.24 3153.77" stroke-width="0" /><circle c_padhole="1" cx="4200.8" cy="3151.8" r="0" stroke-width="0" /></g><g c_partid="part_pad" c_etype="pinpart" c_origin="4200.8,3157.7" layerid="1" number="6" net="" plated ="Y" c_shapetype="group" id="gge205" locked="0" c_rotation="0" c_width="5.12" c_height="3.94" title="" c_shape="RECT" pasteExpansion="0" solderExpansion="0.4"><polygon points="4198.24 3155.73 4203.36 3155.73 4203.36 3159.67 4198.24 3159.67" stroke-width="0" /><circle c_padhole="1" cx="4200.8" cy="3157.7" r="0" stroke-width="0" /></g><g c_partid="part_pad" c_etype="pinpart" c_origin="4200.8,3163.6" layerid="1" number="7" net="S$17628" plated ="Y" c_shapetype="group" id="gge210" locked="0" c_rotation="0" c_width="5.12" c_height="3.94" title="S$17628" c_shape="RECT" pasteExpansion="0" solderExpansion="0.4"><polygon points="4198.24 3161.63 4203.36 3161.63 4203.36 3165.57 4198.24 3165.57" stroke-width="0" /><circle c_padhole="1" cx="4200.8" cy="3163.6" r="0" stroke-width="0" /></g><g c_partid="part_pad" c_etype="pinpart" c_origin="4200.8,3169.5" layerid="1" number="8" net="S$17630" plated ="Y" c_shapetype="group" id="gge216" locked="0" c_rotation="0" c_width="5.12" c_height="3.94" title="S$17630" c_shape="RECT" pasteExpansion="0" solderExpansion="0.4"><polygon points="4198.24 3167.53 4203.36 3167.53 4203.36 3171.47 4198.24 3171.47" stroke-width="0" /><circle c_padhole="1" cx="4200.8" cy="3169.5" r="0" stroke-width="0" /></g><g c_partid="part_pad" c_etype="pinpart" c_origin="4200.8,3175.4" layerid="1" number="9" net="" plated ="Y" c_shapetype="group" id="gge222" locked="0" c_rotation="0" c_width="5.12" c_height="3.94" title="" c_shape="RECT" pasteExpansion="0" solderExpansion="0.4"><polygon points="4198.24 3173.43 4203.36 3173.43 4203.36 3177.37 4198.24 3177.37" stroke-width="0" /><circle c_padhole="1" cx="4200.8" cy="3175.4" r="0" stroke-width="0" /></g><g c_partid="part_pad" c_etype="pinpart" c_origin="4200.8,3181.3" layerid="1" number="10" net="" plated ="Y" c_shapetype="group" id="gge227" locked="0" c_rotation="0" c_width="5.12" c_height="3.94" title="" c_shape="RECT" pasteExpansion="0" solderExpansion="0.4"><polygon points="4198.24 3179.33 4203.36 3179.33 4203.36 3183.27 4198.24 3183.27" stroke-width="0" /><circle c_padhole="1" cx="4200.8" cy="3181.3" r="0" stroke-width="0" /></g><g c_partid="part_pad" c_etype="pinpart" c_origin="4200.8,3187.2" layerid="1" number="11" net="S$17503" plated ="Y" c_shapetype="group" id="gge232" locked="0" c_rotation="0" c_width="5.12" c_height="3.94" title="S$17503" c_shape="RECT" pasteExpansion="0" solderExpansion="0.4"><polygon points="4198.24 3185.23 4203.36 3185.23 4203.36 3189.17 4198.24 3189.17" stroke-width="0" /><circle c_padhole="1" cx="4200.8" cy="3187.2" r="0" stroke-width="0" /></g><g c_partid="part_pad" c_etype="pinpart" c_origin="4200.8,3193.1" layerid="1" number="12" net="S$17499" plated ="Y" c_shapetype="group" id="gge238" locked="0" c_rotation="0" c_width="5.12" c_height="3.94" title="S$17499" c_shape="RECT" pasteExpansion="0" solderExpansion="0.4"><polygon points="4198.24 3191.13 4203.36 3191.13 4203.36 3195.07 4198.24 3195.07" stroke-width="0" /><circle c_padhole="1" cx="4200.8" cy="3193.1" r="0" stroke-width="0" /></g><g c_partid="part_pad" c_etype="pinpart" c_origin="4200.8,3199" layerid="1" number="13" net="S$17497" plated ="Y" c_shapetype="group" id="gge244" locked="0" c_rotation="0" c_width="5.12" c_height="3.94" title="S$17497" c_shape="RECT" pasteExpansion="0" solderExpansion="0.4"><polygon points="4198.24 3197.03 4203.36 3197.03 4203.36 3200.97 4198.24 3200.97" stroke-width="0" /><circle c_padhole="1" cx="4200.8" cy="3199" r="0" stroke-width="0" /></g><g c_partid="part_pcbtext" c_origin="4213,3090.45" c_rotation="0" c_mirror="" id="gge250" layerid="3" c_shapetype="group" ><path c_fontSize="4.5" c_fontFamily="" c_text="HM-10_NO_BOTTOM_ROW" d="M 4213.0001 3088.0001 L 4213.0001 3092.2901 M 4215.8601 3088.0001 L 4215.8601 3092.2901 M 4213.0001 3090.0401 L 4215.8601 3090.0401 M 4217.2101 3088.0001 L 4217.2101 3092.2901 M 4217.2101 3088.0001 L 4218.8501 3092.2901 M 4220.4901 3088.0001 L 4218.8501 3092.2901 M 4220.4901 3088.0001 L 4220.4901 3092.2901 M 4221.8401 3090.4501 L 4225.5201 3090.4501 M 4226.8701 3088.8101 L 4227.2801 3088.6101 L 4227.8901 3088.0001 L 4227.8901 3092.2901 M 4230.4701 3088.0001 L 4229.8501 3088.2001 L 4229.4501 3088.8101 L 4229.2401 3089.8401 L 4229.2401 3090.4501 L 4229.4501 3091.4701 L 4229.8501 3092.0901 L 4230.4701 3092.2901 L 4230.8801 3092.2901 L 4231.4901 3092.0901 L 4231.9001 3091.4701 L 4232.1001 3090.4501 L 4232.1001 3089.8401 L 4231.9001 3088.8101 L 4231.4901 3088.2001 L 4230.8801 3088.0001 L 4230.4701 3088.0001 M 4233.4501 3093.7201 L 4237.1401 3093.7201 M 4238.4901 3088.0001 L 4238.4901 3092.2901 M 4238.4901 3088.0001 L 4241.3501 3092.2901 M 4241.3501 3088.0001 L 4241.3501 3092.2901 M 4243.9301 3088.0001 L 4243.5201 3088.2001 L 4243.1101 3088.6101 L 4242.9001 3089.0201 L 4242.7001 3089.6301 L 4242.7001 3090.6501 L 4242.9001 3091.2701 L 4243.1101 3091.6801 L 4243.5201 3092.0901 L 4243.9301 3092.2901 L 4244.7501 3092.2901 L 4245.1501 3092.0901 L 4245.5601 3091.6801 L 4245.7701 3091.2701 L 4245.9701 3090.6501 L 4245.9701 3089.6301 L 4245.7701 3089.0201 L 4245.5601 3088.6101 L 4245.1501 3088.2001 L 4244.7501 3088.0001 L 4243.9301 3088.0001 M 4247.3201 3093.7201 L 4251.0001 3093.7201 M 4252.3501 3088.0001 L 4252.3501 3092.2901 M 4252.3501 3088.0001 L 4254.2001 3088.0001 L 4254.8101 3088.2001 L 4255.0101 3088.4001 L 4255.2201 3088.8101 L 4255.2201 3089.2201 L 4255.0101 3089.6301 L 4254.8101 3089.8401 L 4254.2001 3090.0401 M 4252.3501 3090.0401 L 4254.2001 3090.0401 L 4254.8101 3090.2501 L 4255.0101 3090.4501 L 4255.2201 3090.8601 L 4255.2201 3091.4701 L 4255.0101 3091.8801 L 4254.8101 3092.0901 L 4254.2001 3092.2901 L 4252.3501 3092.2901 M 4257.8001 3088.0001 L 4257.3901 3088.2001 L 4256.9801 3088.6101 L 4256.7701 3089.0201 L 4256.5701 3089.6301 L 4256.5701 3090.6501 L 4256.7701 3091.2701 L 4256.9801 3091.6801 L 4257.3901 3092.0901 L 4257.8001 3092.2901 L 4258.6101 3092.2901 L 4259.0201 3092.0901 L 4259.4301 3091.6801 L 4259.6401 3091.2701 L 4259.8401 3090.6501 L 4259.8401 3089.6301 L 4259.6401 3089.0201 L 4259.4301 3088.6101 L 4259.0201 3088.2001 L 4258.6101 3088.0001 L 4257.8001 3088.0001 M 4262.6201 3088.0001 L 4262.6201 3092.2901 M 4261.1901 3088.0001 L 4264.0501 3088.0001 M 4266.8401 3088.0001 L 4266.8401 3092.2901 M 4265.4001 3088.0001 L 4268.2701 3088.0001 M 4270.8501 3088.0001 L 4270.4401 3088.2001 L 4270.0301 3088.6101 L 4269.8201 3089.0201 L 4269.6201 3089.6301 L 4269.6201 3090.6501 L 4269.8201 3091.2701 L 4270.0301 3091.6801 L 4270.4401 3092.0901 L 4270.8501 3092.2901 L 4271.6601 3092.2901 L 4272.0701 3092.0901 L 4272.4801 3091.6801 L 4272.6901 3091.2701 L 4272.8901 3090.6501 L 4272.8901 3089.6301 L 4272.6901 3089.0201 L 4272.4801 3088.6101 L 4272.0701 3088.2001 L 4271.6601 3088.0001 L 4270.8501 3088.0001 M 4274.2401 3088.0001 L 4274.2401 3092.2901 M 4274.2401 3088.0001 L 4275.8801 3092.2901 M 4277.5101 3088.0001 L 4275.8801 3092.2901 M 4277.5101 3088.0001 L 4277.5101 3092.2901 M 4278.8601 3093.7201 L 4282.5501 3093.7201 M 4283.9001 3088.0001 L 4283.9001 3092.2901 M 4283.9001 3088.0001 L 4285.7401 3088.0001 L 4286.3501 3088.2001 L 4286.5501 3088.4001 L 4286.7601 3088.8101 L 4286.7601 3089.2201 L 4286.5501 3089.6301 L 4286.3501 3089.8401 L 4285.7401 3090.0401 L 4283.9001 3090.0401 M 4285.3301 3090.0401 L 4286.7601 3092.2901 M 4289.3401 3088.0001 L 4288.9301 3088.2001 L 4288.5201 3088.6101 L 4288.3101 3089.0201 L 4288.1101 3089.6301 L 4288.1101 3090.6501 L 4288.3101 3091.2701 L 4288.5201 3091.6801 L 4288.9301 3092.0901 L 4289.3401 3092.2901 L 4290.1501 3092.2901 L 4290.5601 3092.0901 L 4290.9701 3091.6801 L 4291.1801 3091.2701 L 4291.3801 3090.6501 L 4291.3801 3089.6301 L 4291.1801 3089.0201 L 4290.9701 3088.6101 L 4290.5601 3088.2001 L 4290.1501 3088.0001 L 4289.3401 3088.0001 M 4292.7301 3088.0001 L 4293.7501 3092.2901 M 4294.7801 3088.0001 L 4293.7501 3092.2901 M 4294.7801 3088.0001 L 4295.8001 3092.2901 M 4296.8201 3088.0001 L 4295.8001 3092.2901" fill="none"  stroke-width="0.5"  /></g><polyline points="4200.8 3125.8 4200.8 3121.1 4200.8 3100.2 4252 3100.2 4252 3121.1 4200.8 3121.1" stroke-width="1" c_shapetype="line" stroke-linecap="round" fill="none" layerid="3" net="" id="gge252" /><polyline points="4250 3120.5 4250 3102.8 4242.6 3102.8 4242.6 3116 4235.3 3116 4235.3 3102.8 4227.9 3102.8 4227.9 3116 4220.5 3116 4220.5 3102.8 4213.1 3102.8 4213.1 3116 4205.7 3116 4205.7 3102.8 4202.8 3102.8" stroke-width="1" c_shapetype="line" stroke-linecap="round" fill="none" layerid="3" net="" id="gge253" /><polyline points="4249.2 3206.1 4252 3206.1 4252 3201.4" stroke-width="1" c_shapetype="line" stroke-linecap="round" fill="none" layerid="3" net="" id="gge254" /><polyline points="4252 3196.7 4252 3195.5" stroke-width="1" c_shapetype="line" stroke-linecap="round" fill="none" layerid="3" net="" id="gge255" /><polyline points="4252 3190.7 4252 3189.6" stroke-width="1" c_shapetype="line" stroke-linecap="round" fill="none" layerid="3" net="" id="gge256" /><polyline points="4252 3184.8 4252 3183.7" stroke-width="1" c_shapetype="line" stroke-linecap="round" fill="none" layerid="3" net="" id="gge257" /><polyline points="4252 3178.9 4252 3177.8" stroke-width="1" c_shapetype="line" stroke-linecap="round" fill="none" layerid="3" net="" id="gge258" /><polyline points="4252 3173 4252 3171.8" stroke-width="1" c_shapetype="line" stroke-linecap="round" fill="none" layerid="3" net="" id="gge259" /><polyline points="4252 3167.1 4252 3165.9" stroke-width="1" c_shapetype="line" stroke-linecap="round" fill="none" layerid="3" net="" id="gge260" /><polyline points="4252 3161.2 4252 3160" stroke-width="1" c_shapetype="line" stroke-linecap="round" fill="none" layerid="3" net="" id="gge261" /><polyline points="4252 3155.3 4252 3154.1" stroke-width="1" c_shapetype="line" stroke-linecap="round" fill="none" layerid="3" net="" id="gge262" /><polyline points="4252 3149.4 4252 3148.2" stroke-width="1" c_shapetype="line" stroke-linecap="round" fill="none" layerid="3" net="" id="gge263" /><polyline points="4252 3143.5 4252 3142.3" stroke-width="1" c_shapetype="line" stroke-linecap="round" fill="none" layerid="3" net="" id="gge264" /><polyline points="4252 3137.6 4252 3136.4" stroke-width="1" c_shapetype="line" stroke-linecap="round" fill="none" layerid="3" net="" id="gge265" /><polyline points="4252 3131.7 4252 3130.5" stroke-width="1" c_shapetype="line" stroke-linecap="round" fill="none" layerid="3" net="" id="gge266" /><polyline points="4252 3125.8 4252 3121.1" stroke-width="1" c_shapetype="line" stroke-linecap="round" fill="none" layerid="3" net="" id="gge267" /><polyline points="4200.8 3131.7 4200.8 3130.5" stroke-width="1" c_shapetype="line" stroke-linecap="round" fill="none" layerid="3" net="" id="gge268" /><polyline points="4200.8 3137.6 4200.8 3136.4" stroke-width="1" c_shapetype="line" stroke-linecap="round" fill="none" layerid="3" net="" id="gge269" /><polyline points="4200.8 3143.5 4200.8 3142.3" stroke-width="1" c_shapetype="line" stroke-linecap="round" fill="none" layerid="3" net="" id="gge270" /><polyline points="4200.8 3149.4 4200.8 3148.2" stroke-width="1" c_shapetype="line" stroke-linecap="round" fill="none" layerid="3" net="" id="gge271" /><polyline points="4200.8 3155.3 4200.8 3154.1" stroke-width="1" c_shapetype="line" stroke-linecap="round" fill="none" layerid="3" net="" id="gge272" /><polyline points="4200.8 3161.2 4200.8 3160" stroke-width="1" c_shapetype="line" stroke-linecap="round" fill="none" layerid="3" net="" id="gge273" /><polyline points="4200.8 3167.1 4200.8 3165.9" stroke-width="1" c_shapetype="line" stroke-linecap="round" fill="none" layerid="3" net="" id="gge274" /><polyline points="4200.8 3173 4200.8 3171.8" stroke-width="1" c_shapetype="line" stroke-linecap="round" fill="none" layerid="3" net="" id="gge275" /><polyline points="4200.8 3178.9 4200.8 3177.8" stroke-width="1" c_shapetype="line" stroke-linecap="round" fill="none" layerid="3" net="" id="gge276" /><polyline points="4200.8 3184.8 4200.8 3183.7" stroke-width="1" c_shapetype="line" stroke-linecap="round" fill="none" layerid="3" net="" id="gge277" /><polyline points="4200.8 3190.7 4200.8 3189.6" stroke-width="1" c_shapetype="line" stroke-linecap="round" fill="none" layerid="3" net="" id="gge278" /><polyline points="4200.8 3196.7 4200.8 3195.5" stroke-width="1" c_shapetype="line" stroke-linecap="round" fill="none" layerid="3" net="" id="gge279" /><polyline points="4200.8 3201.4 4200.8 3206.1 4203.6 3206.1" stroke-width="1" c_shapetype="line" stroke-linecap="round" fill="none" layerid="3" net="" id="gge280" /><polyline points="4207.9 3206.1 4209.5 3206.1" stroke-width="1" c_shapetype="line" stroke-linecap="round" fill="none" layerid="3" net="" id="gge281" /><polyline points="4213.8 3206.1 4215.4 3206.1" stroke-width="1" c_shapetype="line" stroke-linecap="round" fill="none" layerid="3" net="" id="gge282" /><polyline points="4219.7 3206.1 4221.3 3206.1" stroke-width="1" c_shapetype="line" stroke-linecap="round" fill="none" layerid="3" net="" id="gge283" /><polyline points="4225.6 3206.1 4227.2 3206.1" stroke-width="1" c_shapetype="line" stroke-linecap="round" fill="none" layerid="3" net="" id="gge284" /><polyline points="4231.5 3206.1 4233.1 3206.1" stroke-width="1" c_shapetype="line" stroke-linecap="round" fill="none" layerid="3" net="" id="gge285" /><polyline points="4237.4 3206.1 4239 3206.1" stroke-width="1" c_shapetype="line" stroke-linecap="round" fill="none" layerid="3" net="" id="gge286" /><polyline points="4243.3 3206.1 4244.9 3206.1" stroke-width="1" c_shapetype="line" stroke-linecap="round" fill="none" layerid="3" net="" id="gge287" /><circle cx="4203.9" cy="3123.6" r="1" stroke-width="1.5" fill="none" layerid="3" id="gge288" c_shapetype="line" /><polyline points="4252 3121.1 4252 3206.1 4200.8 3206.1 4200.8 3121.1" stroke-width="1" c_shapetype="line" stroke-linecap="round" fill="none" layerid="12" net="" id="gge289" /></g><g c_partid="part_pcbtext" c_origin="4237.43,3163.85" c_rotation="0" c_mirror="" id="gge17220" layerid="3" c_shapetype="group" ><path c_fontSize="3" c_fontFamily="" c_text="PIO05" d="M 4237.43 3162.21 L 4237.43 3165.08 M 4237.43 3162.21 L 4238.66 3162.21 L 4239.07 3162.35 L 4239.21 3162.49 L 4239.34 3162.76 L 4239.34 3163.17 L 4239.21 3163.44 L 4239.07 3163.58 L 4238.66 3163.71 L 4237.43 3163.71 M 4240.24 3162.21 L 4240.24 3165.08 M 4241.96 3162.21 L 4241.69 3162.35 L 4241.42 3162.62 L 4241.28 3162.89 L 4241.14 3163.3 L 4241.14 3163.99 L 4241.28 3164.39 L 4241.42 3164.67 L 4241.69 3164.94 L 4241.96 3165.08 L 4242.51 3165.08 L 4242.78 3164.94 L 4243.05 3164.67 L 4243.19 3164.39 L 4243.32 3163.99 L 4243.32 3163.3 L 4243.19 3162.89 L 4243.05 3162.62 L 4242.78 3162.35 L 4242.51 3162.21 L 4241.96 3162.21 M 4245.04 3162.21 L 4244.63 3162.35 L 4244.36 3162.76 L 4244.22 3163.44 L 4244.22 3163.85 L 4244.36 3164.53 L 4244.63 3164.94 L 4245.04 3165.08 L 4245.32 3165.08 L 4245.72 3164.94 L 4246 3164.53 L 4246.13 3163.85 L 4246.13 3163.44 L 4246 3162.76 L 4245.72 3162.35 L 4245.32 3162.21 L 4245.04 3162.21 M 4248.67 3162.21 L 4247.31 3162.21 L 4247.17 3163.44 L 4247.31 3163.3 L 4247.72 3163.17 L 4248.12 3163.17 L 4248.53 3163.3 L 4248.81 3163.58 L 4248.94 3163.99 L 4248.94 3164.26 L 4248.81 3164.67 L 4248.53 3164.94 L 4248.12 3165.08 L 4247.72 3165.08 L 4247.31 3164.94 L 4247.17 3164.8 L 4247.03 3164.53" fill="none"  stroke-width="0.8"  /></g><g c_partid="part_pcbtext" c_origin="4237.43,3199.29" c_rotation="0" c_mirror="" id="gge17199" layerid="3" c_shapetype="group" ><path c_fontSize="3" c_fontFamily="" c_text="GND" d="M 4239.48 3198.34 L 4239.34 3198.07 L 4239.07 3197.79 L 4238.8 3197.66 L 4238.25 3197.66 L 4237.98 3197.79 L 4237.71 3198.07 L 4237.57 3198.34 L 4237.43 3198.75 L 4237.43 3199.43 L 4237.57 3199.84 L 4237.71 3200.11 L 4237.98 3200.38 L 4238.25 3200.52 L 4238.8 3200.52 L 4239.07 3200.38 L 4239.34 3200.11 L 4239.48 3199.84 L 4239.48 3199.43 M 4238.8 3199.43 L 4239.48 3199.43 M 4240.38 3197.66 L 4240.38 3200.52 M 4240.38 3197.66 L 4242.29 3200.52 M 4242.29 3197.66 L 4242.29 3200.52 M 4243.19 3197.66 L 4243.19 3200.52 M 4243.19 3197.66 L 4244.14 3197.66 L 4244.55 3197.79 L 4244.82 3198.07 L 4244.96 3198.34 L 4245.1 3198.75 L 4245.1 3199.43 L 4244.96 3199.84 L 4244.82 3200.11 L 4244.55 3200.38 L 4244.14 3200.52 L 4243.19 3200.52" fill="none"  stroke-width="0.8"  /></g><g c_partid="part_pcbtext" c_origin="4237.21,3193.52" c_rotation="0" c_mirror="" id="gge17202" layerid="3" c_shapetype="group" ><path c_fontSize="3" c_fontFamily="" c_text="PIO0" d="M 4237.21 3191.88 L 4237.21 3194.74 M 4237.21 3191.88 L 4238.44 3191.88 L 4238.85 3192.02 L 4238.98 3192.15 L 4239.12 3192.43 L 4239.12 3192.83 L 4238.98 3193.11 L 4238.85 3193.24 L 4238.44 3193.38 L 4237.21 3193.38 M 4240.02 3191.88 L 4240.02 3194.74 M 4241.74 3191.88 L 4241.47 3192.02 L 4241.19 3192.29 L 4241.06 3192.56 L 4240.92 3192.97 L 4240.92 3193.65 L 4241.06 3194.06 L 4241.19 3194.33 L 4241.47 3194.61 L 4241.74 3194.74 L 4242.28 3194.74 L 4242.56 3194.61 L 4242.83 3194.33 L 4242.97 3194.06 L 4243.1 3193.65 L 4243.1 3192.97 L 4242.97 3192.56 L 4242.83 3192.29 L 4242.56 3192.02 L 4242.28 3191.88 L 4241.74 3191.88 M 4244.82 3191.88 L 4244.41 3192.02 L 4244.14 3192.43 L 4244 3193.11 L 4244 3193.52 L 4244.14 3194.2 L 4244.41 3194.61 L 4244.82 3194.74 L 4245.09 3194.74 L 4245.5 3194.61 L 4245.77 3194.2 L 4245.91 3193.52 L 4245.91 3193.11 L 4245.77 3192.43 L 4245.5 3192.02 L 4245.09 3191.88 L 4244.82 3191.88" fill="none"  stroke-width="0.8"  /></g><g c_partid="part_pcbtext" c_origin="4237.54,3188.07" c_rotation="0" c_mirror="" id="gge17205" layerid="3" c_shapetype="group" ><path c_fontSize="3" c_fontFamily="" c_text="PIO01" d="M 4237.54 3186.44 L 4237.54 3189.3 M 4237.54 3186.44 L 4238.77 3186.44 L 4239.18 3186.57 L 4239.32 3186.71 L 4239.45 3186.98 L 4239.45 3187.39 L 4239.32 3187.66 L 4239.18 3187.8 L 4238.77 3187.94 L 4237.54 3187.94 M 4240.35 3186.44 L 4240.35 3189.3 M 4242.07 3186.44 L 4241.8 3186.57 L 4241.53 3186.84 L 4241.39 3187.12 L 4241.25 3187.53 L 4241.25 3188.21 L 4241.39 3188.62 L 4241.53 3188.89 L 4241.8 3189.16 L 4242.07 3189.3 L 4242.62 3189.3 L 4242.89 3189.16 L 4243.16 3188.89 L 4243.3 3188.62 L 4243.44 3188.21 L 4243.44 3187.53 L 4243.3 3187.12 L 4243.16 3186.84 L 4242.89 3186.57 L 4242.62 3186.44 L 4242.07 3186.44 M 4245.15 3186.44 L 4244.74 3186.57 L 4244.47 3186.98 L 4244.34 3187.66 L 4244.34 3188.07 L 4244.47 3188.75 L 4244.74 3189.16 L 4245.15 3189.3 L 4245.43 3189.3 L 4245.84 3189.16 L 4246.11 3188.75 L 4246.24 3188.07 L 4246.24 3187.66 L 4246.11 3186.98 L 4245.84 3186.57 L 4245.43 3186.44 L 4245.15 3186.44 M 4247.14 3186.98 L 4247.42 3186.84 L 4247.83 3186.44 L 4247.83 3189.3" fill="none"  stroke-width="0.8"  /></g><g c_partid="part_pcbtext" c_origin="4237.1,3181.63" c_rotation="0" c_mirror="" id="gge17211" layerid="3" c_shapetype="group" ><path c_fontSize="3" c_fontFamily="" c_text="PIO02" d="M 4237.1 3179.99 L 4237.1 3182.85 M 4237.1 3179.99 L 4238.33 3179.99 L 4238.74 3180.13 L 4238.87 3180.26 L 4239.01 3180.54 L 4239.01 3180.95 L 4238.87 3181.22 L 4238.74 3181.35 L 4238.33 3181.49 L 4237.1 3181.49 M 4239.91 3179.99 L 4239.91 3182.85 M 4241.63 3179.99 L 4241.35 3180.13 L 4241.08 3180.4 L 4240.95 3180.67 L 4240.81 3181.08 L 4240.81 3181.76 L 4240.95 3182.17 L 4241.08 3182.45 L 4241.35 3182.72 L 4241.63 3182.85 L 4242.17 3182.85 L 4242.45 3182.72 L 4242.72 3182.45 L 4242.85 3182.17 L 4242.99 3181.76 L 4242.99 3181.08 L 4242.85 3180.67 L 4242.72 3180.4 L 4242.45 3180.13 L 4242.17 3179.99 L 4241.63 3179.99 M 4244.71 3179.99 L 4244.3 3180.13 L 4244.03 3180.54 L 4243.89 3181.22 L 4243.89 3181.63 L 4244.03 3182.31 L 4244.3 3182.72 L 4244.71 3182.85 L 4244.98 3182.85 L 4245.39 3182.72 L 4245.66 3182.31 L 4245.8 3181.63 L 4245.8 3181.22 L 4245.66 3180.54 L 4245.39 3180.13 L 4244.98 3179.99 L 4244.71 3179.99 M 4246.84 3180.67 L 4246.84 3180.54 L 4246.97 3180.26 L 4247.11 3180.13 L 4247.38 3179.99 L 4247.93 3179.99 L 4248.2 3180.13 L 4248.34 3180.26 L 4248.47 3180.54 L 4248.47 3180.81 L 4248.34 3181.08 L 4248.06 3181.49 L 4246.7 3182.85 L 4248.61 3182.85" fill="none"  stroke-width="0.8"  /></g><g c_partid="part_pcbtext" c_origin="4237.21,3175.85" c_rotation="0" c_mirror="" id="gge17214" layerid="3" c_shapetype="group" ><path c_fontSize="3" c_fontFamily="" c_text="PIO03" d="M 4237.21 3174.21 L 4237.21 3177.08 M 4237.21 3174.21 L 4238.44 3174.21 L 4238.85 3174.35 L 4238.98 3174.49 L 4239.12 3174.76 L 4239.12 3175.17 L 4238.98 3175.44 L 4238.85 3175.58 L 4238.44 3175.71 L 4237.21 3175.71 M 4240.02 3174.21 L 4240.02 3177.08 M 4241.74 3174.21 L 4241.47 3174.35 L 4241.19 3174.62 L 4241.06 3174.89 L 4240.92 3175.3 L 4240.92 3175.99 L 4241.06 3176.39 L 4241.19 3176.67 L 4241.47 3176.94 L 4241.74 3177.08 L 4242.28 3177.08 L 4242.56 3176.94 L 4242.83 3176.67 L 4242.97 3176.39 L 4243.1 3175.99 L 4243.1 3175.3 L 4242.97 3174.89 L 4242.83 3174.62 L 4242.56 3174.35 L 4242.28 3174.21 L 4241.74 3174.21 M 4244.82 3174.21 L 4244.41 3174.35 L 4244.14 3174.76 L 4244 3175.44 L 4244 3175.85 L 4244.14 3176.53 L 4244.41 3176.94 L 4244.82 3177.08 L 4245.09 3177.08 L 4245.5 3176.94 L 4245.77 3176.53 L 4245.91 3175.85 L 4245.91 3175.44 L 4245.77 3174.76 L 4245.5 3174.35 L 4245.09 3174.21 L 4244.82 3174.21 M 4247.08 3174.21 L 4248.58 3174.21 L 4247.77 3175.3 L 4248.17 3175.3 L 4248.45 3175.44 L 4248.58 3175.58 L 4248.72 3175.99 L 4248.72 3176.26 L 4248.58 3176.67 L 4248.31 3176.94 L 4247.9 3177.08 L 4247.49 3177.08 L 4247.08 3176.94 L 4246.95 3176.8 L 4246.81 3176.53" fill="none"  stroke-width="0.8"  /></g><g c_partid="part_pcbtext" c_origin="4236.99,3169.74" c_rotation="0" c_mirror="" id="gge17217" layerid="3" c_shapetype="group" ><path c_fontSize="3" c_fontFamily="" c_text="PIO04" d="M 4236.99 3168.1 L 4236.99 3170.97 M 4236.99 3168.1 L 4238.22 3168.1 L 4238.63 3168.24 L 4238.76 3168.37 L 4238.9 3168.65 L 4238.9 3169.06 L 4238.76 3169.33 L 4238.63 3169.47 L 4238.22 3169.6 L 4236.99 3169.6 M 4239.8 3168.1 L 4239.8 3170.97 M 4241.52 3168.1 L 4241.24 3168.24 L 4240.97 3168.51 L 4240.83 3168.78 L 4240.7 3169.19 L 4240.7 3169.87 L 4240.83 3170.28 L 4240.97 3170.56 L 4241.24 3170.83 L 4241.52 3170.97 L 4242.06 3170.97 L 4242.33 3170.83 L 4242.61 3170.56 L 4242.74 3170.28 L 4242.88 3169.87 L 4242.88 3169.19 L 4242.74 3168.78 L 4242.61 3168.51 L 4242.33 3168.24 L 4242.06 3168.1 L 4241.52 3168.1 M 4244.6 3168.1 L 4244.19 3168.24 L 4243.92 3168.65 L 4243.78 3169.33 L 4243.78 3169.74 L 4243.92 3170.42 L 4244.19 3170.83 L 4244.6 3170.97 L 4244.87 3170.97 L 4245.28 3170.83 L 4245.55 3170.42 L 4245.69 3169.74 L 4245.69 3169.33 L 4245.55 3168.65 L 4245.28 3168.24 L 4244.87 3168.1 L 4244.6 3168.1 M 4247.95 3168.1 L 4246.59 3170.01 L 4248.63 3170.01 M 4247.95 3168.1 L 4247.95 3170.97" fill="none"  stroke-width="0.8"  /></g><g c_partid="part_pcbtext" c_origin="4237.21,3158.07" c_rotation="0" c_mirror="" id="gge17223" layerid="3" c_shapetype="group" ><path c_fontSize="3" c_fontFamily="" c_text="PIO06" d="M 4237.21 3156.44 L 4237.21 3159.3 M 4237.21 3156.44 L 4238.44 3156.44 L 4238.85 3156.57 L 4238.98 3156.71 L 4239.12 3156.98 L 4239.12 3157.39 L 4238.98 3157.66 L 4238.85 3157.8 L 4238.44 3157.94 L 4237.21 3157.94 M 4240.02 3156.44 L 4240.02 3159.3 M 4241.74 3156.44 L 4241.47 3156.57 L 4241.19 3156.84 L 4241.06 3157.12 L 4240.92 3157.53 L 4240.92 3158.21 L 4241.06 3158.62 L 4241.19 3158.89 L 4241.47 3159.16 L 4241.74 3159.3 L 4242.28 3159.3 L 4242.56 3159.16 L 4242.83 3158.89 L 4242.97 3158.62 L 4243.1 3158.21 L 4243.1 3157.53 L 4242.97 3157.12 L 4242.83 3156.84 L 4242.56 3156.57 L 4242.28 3156.44 L 4241.74 3156.44 M 4244.82 3156.44 L 4244.41 3156.57 L 4244.14 3156.98 L 4244 3157.66 L 4244 3158.07 L 4244.14 3158.75 L 4244.41 3159.16 L 4244.82 3159.3 L 4245.09 3159.3 L 4245.5 3159.16 L 4245.77 3158.75 L 4245.91 3158.07 L 4245.91 3157.66 L 4245.77 3156.98 L 4245.5 3156.57 L 4245.09 3156.44 L 4244.82 3156.44 M 4248.45 3156.84 L 4248.31 3156.57 L 4247.9 3156.44 L 4247.63 3156.44 L 4247.22 3156.57 L 4246.95 3156.98 L 4246.81 3157.66 L 4246.81 3158.34 L 4246.95 3158.89 L 4247.22 3159.16 L 4247.63 3159.3 L 4247.77 3159.3 L 4248.17 3159.16 L 4248.45 3158.89 L 4248.58 3158.48 L 4248.58 3158.34 L 4248.45 3157.94 L 4248.17 3157.66 L 4247.77 3157.53 L 4247.63 3157.53 L 4247.22 3157.66 L 4246.95 3157.94 L 4246.81 3158.34" fill="none"  stroke-width="0.8"  /></g><g c_partid="part_pcbtext" c_origin="4237.32,3152.29" c_rotation="0" c_mirror="" id="gge17226" layerid="3" c_shapetype="group" ><path c_fontSize="3" c_fontFamily="" c_text="PIO07" d="M 4237.32 3150.66 L 4237.32 3153.52 M 4237.32 3150.66 L 4238.55 3150.66 L 4238.96 3150.79 L 4239.09 3150.93 L 4239.23 3151.2 L 4239.23 3151.61 L 4239.09 3151.88 L 4238.96 3152.02 L 4238.55 3152.16 L 4237.32 3152.16 M 4240.13 3150.66 L 4240.13 3153.52 M 4241.85 3150.66 L 4241.58 3150.79 L 4241.3 3151.07 L 4241.17 3151.34 L 4241.03 3151.75 L 4241.03 3152.43 L 4241.17 3152.84 L 4241.3 3153.11 L 4241.58 3153.38 L 4241.85 3153.52 L 4242.39 3153.52 L 4242.67 3153.38 L 4242.94 3153.11 L 4243.08 3152.84 L 4243.21 3152.43 L 4243.21 3151.75 L 4243.08 3151.34 L 4242.94 3151.07 L 4242.67 3150.79 L 4242.39 3150.66 L 4241.85 3150.66 M 4244.93 3150.66 L 4244.52 3150.79 L 4244.25 3151.2 L 4244.11 3151.88 L 4244.11 3152.29 L 4244.25 3152.98 L 4244.52 3153.38 L 4244.93 3153.52 L 4245.2 3153.52 L 4245.61 3153.38 L 4245.89 3152.98 L 4246.02 3152.29 L 4246.02 3151.88 L 4245.89 3151.2 L 4245.61 3150.79 L 4245.2 3150.66 L 4244.93 3150.66 M 4248.83 3150.66 L 4247.47 3153.52 M 4246.92 3150.66 L 4248.83 3150.66" fill="none"  stroke-width="0.8"  /></g><g c_partid="part_pcbtext" c_origin="4237.32,3146.29" c_rotation="0" c_mirror="" id="gge17229" layerid="3" c_shapetype="group" ><path c_fontSize="3" c_fontFamily="" c_text="PIO08" d="M 4237.32 3144.66 L 4237.32 3147.52 M 4237.32 3144.66 L 4238.55 3144.66 L 4238.96 3144.79 L 4239.09 3144.93 L 4239.23 3145.2 L 4239.23 3145.61 L 4239.09 3145.88 L 4238.96 3146.02 L 4238.55 3146.16 L 4237.32 3146.16 M 4240.13 3144.66 L 4240.13 3147.52 M 4241.85 3144.66 L 4241.58 3144.79 L 4241.3 3145.07 L 4241.17 3145.34 L 4241.03 3145.75 L 4241.03 3146.43 L 4241.17 3146.84 L 4241.3 3147.11 L 4241.58 3147.38 L 4241.85 3147.52 L 4242.39 3147.52 L 4242.67 3147.38 L 4242.94 3147.11 L 4243.08 3146.84 L 4243.21 3146.43 L 4243.21 3145.75 L 4243.08 3145.34 L 4242.94 3145.07 L 4242.67 3144.79 L 4242.39 3144.66 L 4241.85 3144.66 M 4244.93 3144.66 L 4244.52 3144.79 L 4244.25 3145.2 L 4244.11 3145.88 L 4244.11 3146.29 L 4244.25 3146.98 L 4244.52 3147.38 L 4244.93 3147.52 L 4245.2 3147.52 L 4245.61 3147.38 L 4245.89 3146.98 L 4246.02 3146.29 L 4246.02 3145.88 L 4245.89 3145.2 L 4245.61 3144.79 L 4245.2 3144.66 L 4244.93 3144.66 M 4247.6 3144.66 L 4247.19 3144.79 L 4247.06 3145.07 L 4247.06 3145.34 L 4247.19 3145.61 L 4247.47 3145.75 L 4248.01 3145.88 L 4248.42 3146.02 L 4248.69 3146.29 L 4248.83 3146.57 L 4248.83 3146.98 L 4248.69 3147.25 L 4248.56 3147.38 L 4248.15 3147.52 L 4247.6 3147.52 L 4247.19 3147.38 L 4247.06 3147.25 L 4246.92 3146.98 L 4246.92 3146.57 L 4247.06 3146.29 L 4247.33 3146.02 L 4247.74 3145.88 L 4248.29 3145.75 L 4248.56 3145.61 L 4248.69 3145.34 L 4248.69 3145.07 L 4248.56 3144.79 L 4248.15 3144.66 L 4247.6 3144.66" fill="none"  stroke-width="0.8"  /></g><g c_partid="part_pcbtext" c_origin="4237.32,3140.74" c_rotation="0" c_mirror="" id="gge17232" layerid="3" c_shapetype="group" ><path c_fontSize="3" c_fontFamily="" c_text="PIO09" d="M 4237.32 3139.1 L 4237.32 3141.97 M 4237.32 3139.1 L 4238.55 3139.1 L 4238.96 3139.24 L 4239.09 3139.37 L 4239.23 3139.65 L 4239.23 3140.06 L 4239.09 3140.33 L 4238.96 3140.47 L 4238.55 3140.6 L 4237.32 3140.6 M 4240.13 3139.1 L 4240.13 3141.97 M 4241.85 3139.1 L 4241.58 3139.24 L 4241.3 3139.51 L 4241.17 3139.78 L 4241.03 3140.19 L 4241.03 3140.87 L 4241.17 3141.28 L 4241.3 3141.56 L 4241.58 3141.83 L 4241.85 3141.97 L 4242.39 3141.97 L 4242.67 3141.83 L 4242.94 3141.56 L 4243.08 3141.28 L 4243.21 3140.87 L 4243.21 3140.19 L 4243.08 3139.78 L 4242.94 3139.51 L 4242.67 3139.24 L 4242.39 3139.1 L 4241.85 3139.1 M 4244.93 3139.1 L 4244.52 3139.24 L 4244.25 3139.65 L 4244.11 3140.33 L 4244.11 3140.74 L 4244.25 3141.42 L 4244.52 3141.83 L 4244.93 3141.97 L 4245.2 3141.97 L 4245.61 3141.83 L 4245.89 3141.42 L 4246.02 3140.74 L 4246.02 3140.33 L 4245.89 3139.65 L 4245.61 3139.24 L 4245.2 3139.1 L 4244.93 3139.1 M 4248.69 3140.06 L 4248.56 3140.47 L 4248.29 3140.74 L 4247.88 3140.87 L 4247.74 3140.87 L 4247.33 3140.74 L 4247.06 3140.47 L 4246.92 3140.06 L 4246.92 3139.92 L 4247.06 3139.51 L 4247.33 3139.24 L 4247.74 3139.1 L 4247.88 3139.1 L 4248.29 3139.24 L 4248.56 3139.51 L 4248.69 3140.06 L 4248.69 3140.74 L 4248.56 3141.42 L 4248.29 3141.83 L 4247.88 3141.97 L 4247.6 3141.97 L 4247.19 3141.83 L 4247.06 3141.56" fill="none"  stroke-width="0.8"  /></g><g c_partid="part_pcbtext" c_origin="4237.43,3134.52" c_rotation="0" c_mirror="" id="gge17235" layerid="3" c_shapetype="group" ><path c_fontSize="3" c_fontFamily="" c_text="PIO10" d="M 4237.43 3132.88 L 4237.43 3135.74 M 4237.43 3132.88 L 4238.66 3132.88 L 4239.07 3133.02 L 4239.21 3133.15 L 4239.34 3133.43 L 4239.34 3133.83 L 4239.21 3134.11 L 4239.07 3134.24 L 4238.66 3134.38 L 4237.43 3134.38 M 4240.24 3132.88 L 4240.24 3135.74 M 4241.96 3132.88 L 4241.69 3133.02 L 4241.42 3133.29 L 4241.28 3133.56 L 4241.14 3133.97 L 4241.14 3134.65 L 4241.28 3135.06 L 4241.42 3135.33 L 4241.69 3135.61 L 4241.96 3135.74 L 4242.51 3135.74 L 4242.78 3135.61 L 4243.05 3135.33 L 4243.19 3135.06 L 4243.32 3134.65 L 4243.32 3133.97 L 4243.19 3133.56 L 4243.05 3133.29 L 4242.78 3133.02 L 4242.51 3132.88 L 4241.96 3132.88 M 4244.22 3133.43 L 4244.5 3133.29 L 4244.91 3132.88 L 4244.91 3135.74 M 4246.62 3132.88 L 4246.22 3133.02 L 4245.94 3133.43 L 4245.81 3134.11 L 4245.81 3134.52 L 4245.94 3135.2 L 4246.22 3135.61 L 4246.62 3135.74 L 4246.9 3135.74 L 4247.31 3135.61 L 4247.58 3135.2 L 4247.72 3134.52 L 4247.72 3134.11 L 4247.58 3133.43 L 4247.31 3133.02 L 4246.9 3132.88 L 4246.62 3132.88" fill="none"  stroke-width="0.8"  /></g><g c_partid="part_pcbtext" c_origin="4237.48,3128.87" c_rotation="0" c_mirror="" id="gge17238" layerid="3" c_shapetype="group" ><path c_fontSize="3" c_fontFamily="" c_text="PIO11" d="M 4237.48 3127.24 L 4237.48 3130.1 M 4237.48 3127.24 L 4238.71 3127.24 L 4239.11 3127.37 L 4239.25 3127.51 L 4239.39 3127.78 L 4239.39 3128.19 L 4239.25 3128.46 L 4239.11 3128.6 L 4238.71 3128.74 L 4237.48 3128.74 M 4240.29 3127.24 L 4240.29 3130.1 M 4242.01 3127.24 L 4241.73 3127.37 L 4241.46 3127.64 L 4241.32 3127.92 L 4241.19 3128.33 L 4241.19 3129.01 L 4241.32 3129.42 L 4241.46 3129.69 L 4241.73 3129.96 L 4242.01 3130.1 L 4242.55 3130.1 L 4242.82 3129.96 L 4243.1 3129.69 L 4243.23 3129.42 L 4243.37 3129.01 L 4243.37 3128.33 L 4243.23 3127.92 L 4243.1 3127.64 L 4242.82 3127.37 L 4242.55 3127.24 L 4242.01 3127.24 M 4244.27 3127.78 L 4244.54 3127.64 L 4244.95 3127.24 L 4244.95 3130.1 M 4245.85 3127.78 L 4246.12 3127.64 L 4246.53 3127.24 L 4246.53 3130.1" fill="none"  stroke-width="0.8"  /></g><g c_partid="part_pcbtext" c_origin="4205,3133.64" c_rotation="0" c_mirror="" id="gge17159" layerid="3" c_shapetype="group" ><path c_fontSize="3" c_fontFamily="" c_text="UART_RX" d="M 4205 3132 L 4205 3134.05 L 4205.14 3134.46 L 4205.41 3134.73 L 4205.82 3134.87 L 4206.09 3134.87 L 4206.5 3134.73 L 4206.77 3134.46 L 4206.91 3134.05 L 4206.91 3132 M 4208.9 3132 L 4207.81 3134.87 M 4208.9 3132 L 4209.99 3134.87 M 4208.22 3133.91 L 4209.58 3133.91 M 4210.89 3132 L 4210.89 3134.87 M 4210.89 3132 L 4212.12 3132 L 4212.53 3132.14 L 4212.66 3132.28 L 4212.8 3132.55 L 4212.8 3132.82 L 4212.66 3133.09 L 4212.53 3133.23 L 4212.12 3133.37 L 4210.89 3133.37 M 4211.85 3133.37 L 4212.8 3134.87 M 4214.65 3132 L 4214.65 3134.87 M 4213.7 3132 L 4215.61 3132 M 4216.51 3135.82 L 4218.96 3135.82 M 4219.86 3132 L 4219.86 3134.87 M 4219.86 3132 L 4221.09 3132 L 4221.5 3132.14 L 4221.64 3132.28 L 4221.77 3132.55 L 4221.77 3132.82 L 4221.64 3133.09 L 4221.5 3133.23 L 4221.09 3133.37 L 4219.86 3133.37 M 4220.82 3133.37 L 4221.77 3134.87 M 4222.67 3132 L 4224.58 3134.87 M 4224.58 3132 L 4222.67 3134.87" fill="none"  stroke-width="0.8"  /></g><g c_partid="part_pcbtext" c_origin="4205,3139.64" c_rotation="0" c_mirror="" id="gge17163" layerid="3" c_shapetype="group" ><path c_fontSize="3" c_fontFamily="" c_text="UART_CTS" d="M 4205 3138 L 4205 3140.05 L 4205.14 3140.46 L 4205.41 3140.73 L 4205.82 3140.87 L 4206.09 3140.87 L 4206.5 3140.73 L 4206.77 3140.46 L 4206.91 3140.05 L 4206.91 3138 M 4208.9 3138 L 4207.81 3140.87 M 4208.9 3138 L 4209.99 3140.87 M 4208.22 3139.91 L 4209.58 3139.91 M 4210.89 3138 L 4210.89 3140.87 M 4210.89 3138 L 4212.12 3138 L 4212.53 3138.14 L 4212.66 3138.28 L 4212.8 3138.55 L 4212.8 3138.82 L 4212.66 3139.09 L 4212.53 3139.23 L 4212.12 3139.37 L 4210.89 3139.37 M 4211.85 3139.37 L 4212.8 3140.87 M 4214.65 3138 L 4214.65 3140.87 M 4213.7 3138 L 4215.61 3138 M 4216.51 3141.82 L 4218.96 3141.82 M 4221.91 3138.69 L 4221.77 3138.41 L 4221.5 3138.14 L 4221.23 3138 L 4220.68 3138 L 4220.41 3138.14 L 4220.14 3138.41 L 4220 3138.69 L 4219.86 3139.09 L 4219.86 3139.78 L 4220 3140.19 L 4220.14 3140.46 L 4220.41 3140.73 L 4220.68 3140.87 L 4221.23 3140.87 L 4221.5 3140.73 L 4221.77 3140.46 L 4221.91 3140.19 M 4223.76 3138 L 4223.76 3140.87 M 4222.81 3138 L 4224.72 3138 M 4227.53 3138.41 L 4227.25 3138.14 L 4226.85 3138 L 4226.3 3138 L 4225.89 3138.14 L 4225.62 3138.41 L 4225.62 3138.69 L 4225.75 3138.96 L 4225.89 3139.09 L 4226.16 3139.23 L 4226.98 3139.5 L 4227.25 3139.64 L 4227.39 3139.78 L 4227.53 3140.05 L 4227.53 3140.46 L 4227.25 3140.73 L 4226.85 3140.87 L 4226.3 3140.87 L 4225.89 3140.73 L 4225.62 3140.46" fill="none"  stroke-width="0.8"  /></g><g c_partid="part_pcbtext" c_origin="4205,3127.64" c_rotation="0" c_mirror="" id="gge17166" layerid="3" c_shapetype="group" ><path c_fontSize="3" c_fontFamily="" c_text="UART_TX" d="M 4205 3126 L 4205 3128.05 L 4205.14 3128.46 L 4205.41 3128.73 L 4205.82 3128.87 L 4206.09 3128.87 L 4206.5 3128.73 L 4206.77 3128.46 L 4206.91 3128.05 L 4206.91 3126 M 4208.9 3126 L 4207.81 3128.87 M 4208.9 3126 L 4209.99 3128.87 M 4208.22 3127.91 L 4209.58 3127.91 M 4210.89 3126 L 4210.89 3128.87 M 4210.89 3126 L 4212.12 3126 L 4212.53 3126.14 L 4212.66 3126.28 L 4212.8 3126.55 L 4212.8 3126.82 L 4212.66 3127.09 L 4212.53 3127.23 L 4212.12 3127.37 L 4210.89 3127.37 M 4211.85 3127.37 L 4212.8 3128.87 M 4214.65 3126 L 4214.65 3128.87 M 4213.7 3126 L 4215.61 3126 M 4216.51 3129.82 L 4218.96 3129.82 M 4220.82 3126 L 4220.82 3128.87 M 4219.86 3126 L 4221.77 3126 M 4222.67 3126 L 4224.58 3128.87 M 4224.58 3126 L 4222.67 3128.87" fill="none"  stroke-width="0.8"  /></g><g c_partid="part_pcbtext" c_origin="4205,3145.64" c_rotation="0" c_mirror="" id="gge17169" layerid="3" c_shapetype="group" ><path c_fontSize="3" c_fontFamily="" c_text="UART_RTS" d="M 4205 3144 L 4205 3146.05 L 4205.14 3146.46 L 4205.41 3146.73 L 4205.82 3146.87 L 4206.09 3146.87 L 4206.5 3146.73 L 4206.77 3146.46 L 4206.91 3146.05 L 4206.91 3144 M 4208.9 3144 L 4207.81 3146.87 M 4208.9 3144 L 4209.99 3146.87 M 4208.22 3145.91 L 4209.58 3145.91 M 4210.89 3144 L 4210.89 3146.87 M 4210.89 3144 L 4212.12 3144 L 4212.53 3144.14 L 4212.66 3144.28 L 4212.8 3144.55 L 4212.8 3144.82 L 4212.66 3145.09 L 4212.53 3145.23 L 4212.12 3145.37 L 4210.89 3145.37 M 4211.85 3145.37 L 4212.8 3146.87 M 4214.65 3144 L 4214.65 3146.87 M 4213.7 3144 L 4215.61 3144 M 4216.51 3147.82 L 4218.96 3147.82 M 4219.86 3144 L 4219.86 3146.87 M 4219.86 3144 L 4221.09 3144 L 4221.5 3144.14 L 4221.64 3144.28 L 4221.77 3144.55 L 4221.77 3144.82 L 4221.64 3145.09 L 4221.5 3145.23 L 4221.09 3145.37 L 4219.86 3145.37 M 4220.82 3145.37 L 4221.77 3146.87 M 4223.63 3144 L 4223.63 3146.87 M 4222.67 3144 L 4224.58 3144 M 4227.39 3144.41 L 4227.12 3144.14 L 4226.71 3144 L 4226.16 3144 L 4225.75 3144.14 L 4225.48 3144.41 L 4225.48 3144.69 L 4225.62 3144.96 L 4225.75 3145.09 L 4226.03 3145.23 L 4226.85 3145.5 L 4227.12 3145.64 L 4227.25 3145.78 L 4227.39 3146.05 L 4227.39 3146.46 L 4227.12 3146.73 L 4226.71 3146.87 L 4226.16 3146.87 L 4225.75 3146.73 L 4225.48 3146.46" fill="none"  stroke-width="0.8"  /></g><g c_partid="part_pcbtext" c_origin="4205,3151.64" c_rotation="0" c_mirror="" id="gge17172" layerid="3" c_shapetype="group" ><path c_fontSize="3" c_fontFamily="" c_text="5" d="M 4206.64 3150 L 4205.27 3150 L 4205.14 3151.23 L 4205.27 3151.09 L 4205.68 3150.96 L 4206.09 3150.96 L 4206.5 3151.09 L 4206.77 3151.37 L 4206.91 3151.78 L 4206.91 3152.05 L 4206.77 3152.46 L 4206.5 3152.73 L 4206.09 3152.87 L 4205.68 3152.87 L 4205.27 3152.73 L 4205.14 3152.59 L 4205 3152.32" fill="none"  stroke-width="0.8"  /></g><g c_partid="part_pcbtext" c_origin="4205,3157.64" c_rotation="0" c_mirror="" id="gge17175" layerid="3" c_shapetype="group" ><path c_fontSize="3" c_fontFamily="" c_text="6" d="M 4206.64 3156.41 L 4206.5 3156.14 L 4206.09 3156 L 4205.82 3156 L 4205.41 3156.14 L 4205.14 3156.55 L 4205 3157.23 L 4205 3157.91 L 4205.14 3158.46 L 4205.41 3158.73 L 4205.82 3158.87 L 4205.95 3158.87 L 4206.36 3158.73 L 4206.64 3158.46 L 4206.77 3158.05 L 4206.77 3157.91 L 4206.64 3157.5 L 4206.36 3157.23 L 4205.95 3157.09 L 4205.82 3157.09 L 4205.41 3157.23 L 4205.14 3157.5 L 4205 3157.91" fill="none"  stroke-width="0.8"  /></g><g c_partid="part_pcbtext" c_origin="4205,3163.64" c_rotation="0" c_mirror="" id="gge17178" layerid="3" c_shapetype="group" ><path c_fontSize="3" c_fontFamily="" c_text="DEBUG_CLOCK" d="M 4205 3162 L 4205 3164.87 M 4205 3162 L 4205.95 3162 L 4206.36 3162.14 L 4206.64 3162.41 L 4206.77 3162.69 L 4206.91 3163.09 L 4206.91 3163.78 L 4206.77 3164.19 L 4206.64 3164.46 L 4206.36 3164.73 L 4205.95 3164.87 L 4205 3164.87 M 4207.81 3162 L 4207.81 3164.87 M 4207.81 3162 L 4209.58 3162 M 4207.81 3163.37 L 4208.9 3163.37 M 4207.81 3164.87 L 4209.58 3164.87 M 4210.48 3162 L 4210.48 3164.87 M 4210.48 3162 L 4211.71 3162 L 4212.12 3162.14 L 4212.25 3162.28 L 4212.39 3162.55 L 4212.39 3162.82 L 4212.25 3163.09 L 4212.12 3163.23 L 4211.71 3163.37 M 4210.48 3163.37 L 4211.71 3163.37 L 4212.12 3163.5 L 4212.25 3163.64 L 4212.39 3163.91 L 4212.39 3164.32 L 4212.25 3164.59 L 4212.12 3164.73 L 4211.71 3164.87 L 4210.48 3164.87 M 4213.29 3162 L 4213.29 3164.05 L 4213.43 3164.46 L 4213.7 3164.73 L 4214.11 3164.87 L 4214.38 3164.87 L 4214.79 3164.73 L 4215.06 3164.46 L 4215.2 3164.05 L 4215.2 3162 M 4218.15 3162.69 L 4218.01 3162.41 L 4217.74 3162.14 L 4217.46 3162 L 4216.92 3162 L 4216.65 3162.14 L 4216.37 3162.41 L 4216.24 3162.69 L 4216.1 3163.09 L 4216.1 3163.78 L 4216.24 3164.19 L 4216.37 3164.46 L 4216.65 3164.73 L 4216.92 3164.87 L 4217.46 3164.87 L 4217.74 3164.73 L 4218.01 3164.46 L 4218.15 3164.19 L 4218.15 3163.78 M 4217.46 3163.78 L 4218.15 3163.78 M 4219.05 3165.82 L 4221.5 3165.82 M 4224.45 3162.69 L 4224.31 3162.41 L 4224.04 3162.14 L 4223.76 3162 L 4223.22 3162 L 4222.95 3162.14 L 4222.67 3162.41 L 4222.54 3162.69 L 4222.4 3163.09 L 4222.4 3163.78 L 4222.54 3164.19 L 4222.67 3164.46 L 4222.95 3164.73 L 4223.22 3164.87 L 4223.76 3164.87 L 4224.04 3164.73 L 4224.31 3164.46 L 4224.45 3164.19 M 4225.35 3162 L 4225.35 3164.87 M 4225.35 3164.87 L 4226.98 3164.87 M 4228.7 3162 L 4228.43 3162.14 L 4228.15 3162.41 L 4228.02 3162.69 L 4227.88 3163.09 L 4227.88 3163.78 L 4228.02 3164.19 L 4228.15 3164.46 L 4228.43 3164.73 L 4228.7 3164.87 L 4229.25 3164.87 L 4229.52 3164.73 L 4229.79 3164.46 L 4229.93 3164.19 L 4230.06 3163.78 L 4230.06 3163.09 L 4229.93 3162.69 L 4229.79 3162.41 L 4229.52 3162.14 L 4229.25 3162 L 4228.7 3162 M 4233.01 3162.69 L 4232.87 3162.41 L 4232.6 3162.14 L 4232.33 3162 L 4231.78 3162 L 4231.51 3162.14 L 4231.24 3162.41 L 4231.1 3162.69 L 4230.96 3163.09 L 4230.96 3163.78 L 4231.1 3164.19 L 4231.24 3164.46 L 4231.51 3164.73 L 4231.78 3164.87 L 4232.33 3164.87 L 4232.6 3164.73 L 4232.87 3164.46 L 4233.01 3164.19 M 4233.91 3162 L 4233.91 3164.87 M 4235.82 3162 L 4233.91 3163.91 M 4234.59 3163.23 L 4235.82 3164.87" fill="none"  stroke-width="0.8"  /></g><g c_partid="part_pcbtext" c_origin="4205,3169.64" c_rotation="0" c_mirror="" id="gge17181" layerid="3" c_shapetype="group" ><path c_fontSize="3" c_fontFamily="" c_text="DEBUG_DATA" d="M 4205 3168 L 4205 3170.87 M 4205 3168 L 4205.95 3168 L 4206.36 3168.14 L 4206.64 3168.41 L 4206.77 3168.69 L 4206.91 3169.09 L 4206.91 3169.78 L 4206.77 3170.19 L 4206.64 3170.46 L 4206.36 3170.73 L 4205.95 3170.87 L 4205 3170.87 M 4207.81 3168 L 4207.81 3170.87 M 4207.81 3168 L 4209.58 3168 M 4207.81 3169.37 L 4208.9 3169.37 M 4207.81 3170.87 L 4209.58 3170.87 M 4210.48 3168 L 4210.48 3170.87 M 4210.48 3168 L 4211.71 3168 L 4212.12 3168.14 L 4212.25 3168.28 L 4212.39 3168.55 L 4212.39 3168.82 L 4212.25 3169.09 L 4212.12 3169.23 L 4211.71 3169.37 M 4210.48 3169.37 L 4211.71 3169.37 L 4212.12 3169.5 L 4212.25 3169.64 L 4212.39 3169.91 L 4212.39 3170.32 L 4212.25 3170.59 L 4212.12 3170.73 L 4211.71 3170.87 L 4210.48 3170.87 M 4213.29 3168 L 4213.29 3170.05 L 4213.43 3170.46 L 4213.7 3170.73 L 4214.11 3170.87 L 4214.38 3170.87 L 4214.79 3170.73 L 4215.06 3170.46 L 4215.2 3170.05 L 4215.2 3168 M 4218.15 3168.69 L 4218.01 3168.41 L 4217.74 3168.14 L 4217.46 3168 L 4216.92 3168 L 4216.65 3168.14 L 4216.37 3168.41 L 4216.24 3168.69 L 4216.1 3169.09 L 4216.1 3169.78 L 4216.24 3170.19 L 4216.37 3170.46 L 4216.65 3170.73 L 4216.92 3170.87 L 4217.46 3170.87 L 4217.74 3170.73 L 4218.01 3170.46 L 4218.15 3170.19 L 4218.15 3169.78 M 4217.46 3169.78 L 4218.15 3169.78 M 4219.05 3171.82 L 4221.5 3171.82 M 4222.4 3168 L 4222.4 3170.87 M 4222.4 3168 L 4223.35 3168 L 4223.76 3168.14 L 4224.04 3168.41 L 4224.17 3168.69 L 4224.31 3169.09 L 4224.31 3169.78 L 4224.17 3170.19 L 4224.04 3170.46 L 4223.76 3170.73 L 4223.35 3170.87 L 4222.4 3170.87 M 4226.3 3168 L 4225.21 3170.87 M 4226.3 3168 L 4227.39 3170.87 M 4225.62 3169.91 L 4226.98 3169.91 M 4229.25 3168 L 4229.25 3170.87 M 4228.29 3168 L 4230.2 3168 M 4232.19 3168 L 4231.1 3170.87 M 4232.19 3168 L 4233.28 3170.87 M 4231.51 3169.91 L 4232.87 3169.91" fill="none"  stroke-width="0.8"  /></g><g c_partid="part_pcbtext" c_origin="4205,3175.64" c_rotation="0" c_mirror="" id="gge17184" layerid="3" c_shapetype="group" ><path c_fontSize="3" c_fontFamily="" c_text="9" d="M 4206.77 3174.96 L 4206.64 3175.37 L 4206.36 3175.64 L 4205.95 3175.78 L 4205.82 3175.78 L 4205.41 3175.64 L 4205.14 3175.37 L 4205 3174.96 L 4205 3174.82 L 4205.14 3174.41 L 4205.41 3174.14 L 4205.82 3174 L 4205.95 3174 L 4206.36 3174.14 L 4206.64 3174.41 L 4206.77 3174.96 L 4206.77 3175.64 L 4206.64 3176.32 L 4206.36 3176.73 L 4205.95 3176.87 L 4205.68 3176.87 L 4205.27 3176.73 L 4205.14 3176.46" fill="none"  stroke-width="0.8"  /></g><g c_partid="part_pcbtext" c_origin="4205,3181.64" c_rotation="0" c_mirror="" id="gge17187" layerid="3" c_shapetype="group" ><path c_fontSize="3" c_fontFamily="" c_text="10" d="M 4205 3180.55 L 4205.27 3180.41 L 4205.68 3180 L 4205.68 3182.87 M 4207.4 3180 L 4206.99 3180.14 L 4206.72 3180.55 L 4206.58 3181.23 L 4206.58 3181.64 L 4206.72 3182.32 L 4206.99 3182.73 L 4207.4 3182.87 L 4207.67 3182.87 L 4208.08 3182.73 L 4208.35 3182.32 L 4208.49 3181.64 L 4208.49 3181.23 L 4208.35 3180.55 L 4208.08 3180.14 L 4207.67 3180 L 4207.4 3180" fill="none"  stroke-width="0.8"  /></g><g c_partid="part_pcbtext" c_origin="4205,3187.64" c_rotation="0" c_mirror="" id="gge17190" layerid="3" c_shapetype="group" ><path c_fontSize="3" c_fontFamily="" c_text="RESETB" d="M 4205 3186 L 4205 3188.87 M 4205 3186 L 4206.23 3186 L 4206.64 3186.14 L 4206.77 3186.28 L 4206.91 3186.55 L 4206.91 3186.82 L 4206.77 3187.09 L 4206.64 3187.23 L 4206.23 3187.37 L 4205 3187.37 M 4205.95 3187.37 L 4206.91 3188.87 M 4207.81 3186 L 4207.81 3188.87 M 4207.81 3186 L 4209.58 3186 M 4207.81 3187.37 L 4208.9 3187.37 M 4207.81 3188.87 L 4209.58 3188.87 M 4212.39 3186.41 L 4212.12 3186.14 L 4211.71 3186 L 4211.16 3186 L 4210.75 3186.14 L 4210.48 3186.41 L 4210.48 3186.69 L 4210.62 3186.96 L 4210.75 3187.09 L 4211.03 3187.23 L 4211.85 3187.5 L 4212.12 3187.64 L 4212.25 3187.78 L 4212.39 3188.05 L 4212.39 3188.46 L 4212.12 3188.73 L 4211.71 3188.87 L 4211.16 3188.87 L 4210.75 3188.73 L 4210.48 3188.46 M 4213.29 3186 L 4213.29 3188.87 M 4213.29 3186 L 4215.06 3186 M 4213.29 3187.37 L 4214.38 3187.37 M 4213.29 3188.87 L 4215.06 3188.87 M 4216.92 3186 L 4216.92 3188.87 M 4215.96 3186 L 4217.87 3186 M 4218.77 3186 L 4218.77 3188.87 M 4218.77 3186 L 4220 3186 L 4220.41 3186.14 L 4220.55 3186.28 L 4220.68 3186.55 L 4220.68 3186.82 L 4220.55 3187.09 L 4220.41 3187.23 L 4220 3187.37 M 4218.77 3187.37 L 4220 3187.37 L 4220.41 3187.5 L 4220.55 3187.64 L 4220.68 3187.91 L 4220.68 3188.32 L 4220.55 3188.59 L 4220.41 3188.73 L 4220 3188.87 L 4218.77 3188.87" fill="none"  stroke-width="0.8"  /></g><g c_partid="part_pcbtext" c_origin="4205,3193.64" c_rotation="0" c_mirror="" id="gge17193" layerid="3" c_shapetype="group" ><path c_fontSize="3" c_fontFamily="" c_text="3.3V" d="M 4205.27 3192 L 4206.77 3192 L 4205.95 3193.09 L 4206.36 3193.09 L 4206.64 3193.23 L 4206.77 3193.37 L 4206.91 3193.78 L 4206.91 3194.05 L 4206.77 3194.46 L 4206.5 3194.73 L 4206.09 3194.87 L 4205.68 3194.87 L 4205.27 3194.73 L 4205.14 3194.59 L 4205 3194.32 M 4207.95 3194.19 L 4207.81 3194.32 L 4207.95 3194.46 L 4208.08 3194.32 L 4207.95 3194.19 M 4209.25 3192 L 4210.75 3192 L 4209.94 3193.09 L 4210.35 3193.09 L 4210.62 3193.23 L 4210.75 3193.37 L 4210.89 3193.78 L 4210.89 3194.05 L 4210.75 3194.46 L 4210.48 3194.73 L 4210.07 3194.87 L 4209.66 3194.87 L 4209.25 3194.73 L 4209.12 3194.59 L 4208.98 3194.32 M 4211.79 3192 L 4212.88 3194.87 M 4213.97 3192 L 4212.88 3194.87" fill="none"  stroke-width="0.8"  /></g><g c_partid="part_pcbtext" c_origin="4205,3198.64" c_rotation="0" c_mirror="" id="gge17196" layerid="3" c_shapetype="group" ><path c_fontSize="3" c_fontFamily="" c_text="GND1" d="M 4207.05 3197.69 L 4206.91 3197.41 L 4206.64 3197.14 L 4206.36 3197 L 4205.82 3197 L 4205.55 3197.14 L 4205.27 3197.41 L 4205.14 3197.69 L 4205 3198.09 L 4205 3198.78 L 4205.14 3199.19 L 4205.27 3199.46 L 4205.55 3199.73 L 4205.82 3199.87 L 4206.36 3199.87 L 4206.64 3199.73 L 4206.91 3199.46 L 4207.05 3199.19 L 4207.05 3198.78 M 4206.36 3198.78 L 4207.05 3198.78 M 4207.95 3197 L 4207.95 3199.87 M 4207.95 3197 L 4209.85 3199.87 M 4209.85 3197 L 4209.85 3199.87 M 4210.75 3197 L 4210.75 3199.87 M 4210.75 3197 L 4211.71 3197 L 4212.12 3197.14 L 4212.39 3197.41 L 4212.53 3197.69 L 4212.66 3198.09 L 4212.66 3198.78 L 4212.53 3199.19 L 4212.39 3199.46 L 4212.12 3199.73 L 4211.71 3199.87 L 4210.75 3199.87 M 4213.56 3197.55 L 4213.84 3197.41 L 4214.25 3197 L 4214.25 3199.87" fill="none"  stroke-width="0.8"  /></g><g c_partid="part_pad" c_etype="pinpart" c_origin="4191,3187" layerid="11" number="64" net="S$17503" plated ="Y" c_shapetype="group" id="gge17476" locked="1" c_rotation="0" c_width="3.937" c_height="3.937" title="S$17503" c_shape="ELLIPSE" pasteExpansion="0" solderExpansion="0.4"><ellipse cx="4191" cy="3187" rx="1.9685" ry="1.9685" stroke-width="0" /><circle c_padhole="1" cx="4191" cy="3187" r="1.8" stroke-width="0" /></g><g c_partid="part_pad" c_etype="pinpart" c_origin="4191,3194" layerid="11" number="65" net="S$17499" plated ="Y" c_shapetype="group" id="gge17481" locked="1" c_rotation="0" c_width="3.937" c_height="3.937" title="S$17499" c_shape="ELLIPSE" pasteExpansion="0" solderExpansion="0.4"><ellipse cx="4191" cy="3194" rx="1.9685" ry="1.9685" stroke-width="0" /><circle c_padhole="1" cx="4191" cy="3194" r="1.8" stroke-width="0" /></g><g c_partid="part_pad" c_etype="pinpart" c_origin="4191,3201" layerid="11" number="66" net="S$17497" plated ="Y" c_shapetype="group" id="gge17486" locked="1" c_rotation="0" c_width="3.937" c_height="3.937" title="S$17497" c_shape="ELLIPSE" pasteExpansion="0" solderExpansion="0.4"><ellipse cx="4191" cy="3201" rx="1.9685" ry="1.9685" stroke-width="0" /><circle c_padhole="1" cx="4191" cy="3201" r="1.8" stroke-width="0" /></g><g c_partid="part_pad" c_etype="pinpart" c_origin="4191,3164" layerid="11" number="69" net="S$17628" plated ="Y" c_shapetype="group" id="gge17608" locked="1" c_rotation="0" c_width="3.937" c_height="3.937" title="S$17628" c_shape="ELLIPSE" pasteExpansion="0" solderExpansion="0.4"><ellipse cx="4191" cy="3164" rx="1.9685" ry="1.9685" stroke-width="0" /><circle c_padhole="1" cx="4191" cy="3164" r="1.8" stroke-width="0" /></g><g c_partid="part_pad" c_etype="pinpart" c_origin="4191,3170" layerid="11" number="70" net="S$17630" plated ="Y" c_shapetype="group" id="gge17614" locked="1" c_rotation="0" c_width="3.937" c_height="3.937" title="S$17630" c_shape="ELLIPSE" pasteExpansion="0" solderExpansion="0.4"><ellipse cx="4191" cy="3170" rx="1.9685" ry="1.9685" stroke-width="0" /><circle c_padhole="1" cx="4191" cy="3170" r="1.8" stroke-width="0" /></g><g c_partid="part_pad" c_etype="pinpart" c_origin="4190,3128" layerid="11" number="71" net="S$17666" plated ="Y" c_shapetype="group" id="gge17643" locked="1" c_rotation="0" c_width="3.937" c_height="3.937" title="S$17666" c_shape="ELLIPSE" pasteExpansion="0" solderExpansion="0.4"><ellipse cx="4190" cy="3128" rx="1.9685" ry="1.9685" stroke-width="0" /><circle c_padhole="1" cx="4190" cy="3128" r="1.7992" stroke-width="0" /></g><g c_partid="part_pad" c_etype="pinpart" c_origin="4190,3134" layerid="11" number="72" net="S$17670" plated ="Y" c_shapetype="group" id="gge17655" locked="1" c_rotation="0" c_width="3.94" c_height="3.94" title="S$17670" c_shape="ELLIPSE" pasteExpansion="0" solderExpansion="0.4"><ellipse cx="4190" cy="3134" rx="1.97" ry="1.97" stroke-width="0" /><circle c_padhole="1" cx="4190" cy="3134" r="1.7992" stroke-width="0" /></g><g c_partid="part_pad" c_etype="pinpart" c_origin="4190,3140" layerid="11" number="73" net="S$17723" plated ="Y" c_shapetype="group" id="gge17671" locked="1" c_rotation="0" c_width="3.937" c_height="3.937" title="S$17723" c_shape="ELLIPSE" pasteExpansion="0" solderExpansion="0.4"><ellipse cx="4190" cy="3140" rx="1.9685" ry="1.9685" stroke-width="0" /><circle c_padhole="1" cx="4190" cy="3140" r="1.8" stroke-width="0" /></g><g c_partid="part_pad" c_etype="pinpart" c_origin="4190,3146" layerid="11" number="74" net="S$17725" plated ="Y" c_shapetype="group" id="gge17676" locked="1" c_rotation="0" c_width="3.937" c_height="3.937" title="S$17725" c_shape="ELLIPSE" pasteExpansion="0" solderExpansion="0.4"><ellipse cx="4190" cy="3146" rx="1.9685" ry="1.9685" stroke-width="0" /><circle c_padhole="1" cx="4190" cy="3146" r="1.8" stroke-width="0" /></g><g c_partid="part_pad" c_etype="pinpart" c_origin="4260,3199" layerid="11" number="75" net="S$17721" plated ="Y" c_shapetype="group" id="gge17686" locked="1" c_rotation="0" c_width="3.937" c_height="3.937" title="S$17721" c_shape="ELLIPSE" pasteExpansion="0" solderExpansion="0.4"><ellipse cx="4260" cy="3199" rx="1.9685" ry="1.9685" stroke-width="0" /><circle c_padhole="1" cx="4260" cy="3199" r="1.7992" stroke-width="0" /></g><g c_partid="part_pad" c_etype="pinpart" c_origin="4260,3193" layerid="11" number="76" net="S$17719" plated ="Y" c_shapetype="group" id="gge17696" locked="1" c_rotation="0" c_width="3.937" c_height="3.937" title="S$17719" c_shape="ELLIPSE" pasteExpansion="0" solderExpansion="0.4"><ellipse cx="4260" cy="3193" rx="1.9685" ry="1.9685" stroke-width="0" /><circle c_padhole="1" cx="4260" cy="3193" r="1.7992" stroke-width="0" /></g><g c_partid="part_pad" c_etype="pinpart" c_origin="4260,3187" layerid="11" number="77" net="S$17717" plated ="Y" c_shapetype="group" id="gge17701" locked="1" c_rotation="0" c_width="3.937" c_height="3.937" title="S$17717" c_shape="ELLIPSE" pasteExpansion="0" solderExpansion="0.4"><ellipse cx="4260" cy="3187" rx="1.9685" ry="1.9685" stroke-width="0" /><circle c_padhole="1" cx="4260" cy="3187" r="1.7992" stroke-width="0" /></g></g></svg>